<svg id="ic_launcher" xmlns="http://www.w3.org/2000/svg" xmlns:xlink="http://www.w3.org/1999/xlink" viewBox="0 0 48 48"><defs><style>.cls-1{opacity:0.15;}.cls-2{fill:#fff;}.cls-3{fill:#2962ff;}.cls-4{fill:url(#名称未設定グラデーション_3);}</style><linearGradient id="名称未設定グラデーション_3" x1="24" y1="47" x2="24" y2="23.5" gradientUnits="userSpaceOnUse"><stop offset="0" stop-opacity="0"/><stop offset="1" stop-opacity="0.2"/></linearGradient></defs><title>ic_launcher</title><circle class="cls-1" cx="24" cy="24.5" r="23.5"/><circle class="cls-2" cx="24" cy="23.5" r="23.5"/><path class="cls-1" d="M35.34,21.9,20.63,13.41a3,3,0,0,0-4.5,2.6V33a3,3,0,0,0,4.5,2.6L35.34,27.1A3,3,0,0,0,35.34,21.9Z"/><path class="cls-3" d="M35.34,20.9,20.63,12.41a3,3,0,0,0-4.5,2.6V32a3,3,0,0,0,4.5,2.6L35.34,26.1A3,3,0,0,0,35.34,20.9Z"/><path class="cls-4" d="M47.5,23.5a23.5,23.5,0,0,1-47,0"/></svg>