<svg xmlns="http://www.w3.org/2000/svg" xmlns:xlink="http://www.w3.org/1999/xlink" viewBox="0 0 108 108"><defs><style>.cls-1{fill:url(#名称未設定グラデーション_3);}.cls-2{opacity:0.15;}.cls-3{fill:#2962ff;}.cls-4{fill:url(#名称未設定グラデーション_5);}</style><linearGradient id="名称未設定グラデーション_3" x1="54" y1="94" x2="54" y2="36.76" gradientUnits="userSpaceOnUse"><stop offset="0" stop-opacity="0"/><stop offset="1" stop-opacity="0.2"/></linearGradient><linearGradient id="名称未設定グラデーション_5" y2="54" xlink:href="#名称未設定グラデーション_3"/></defs><title>ic_launcher_foreground</title><g id="ic_launcher_foreground"><path class="cls-1" d="M69.76,51.6,47.7,38.87A4.5,4.5,0,0,0,41,42.76V68.24a4.5,4.5,0,0,0,6.75,3.89L69.76,59.4A4.51,4.51,0,0,0,69.76,51.6Z"/><path class="cls-1" d="M69.76,50.1,47.7,37.37A4.5,4.5,0,0,0,41,41.26V66.74a4.5,4.5,0,0,0,6.75,3.89L69.76,57.9A4.51,4.51,0,0,0,69.76,50.1Z"/><rect class="cls-1" y="54" width="108" height="40"/><path class="cls-2" d="M69.76,51.6,47.7,38.87A4.5,4.5,0,0,0,41,42.76V68.24a4.5,4.5,0,0,0,6.75,3.89L69.76,59.4A4.51,4.51,0,0,0,69.76,51.6Z"/><path class="cls-3" d="M69.76,50.1,47.7,37.37A4.5,4.5,0,0,0,41,41.26V66.74a4.5,4.5,0,0,0,6.75,3.89L69.76,57.9A4.51,4.51,0,0,0,69.76,50.1Z"/><rect class="cls-4" y="54" width="108" height="40"/></g></svg>